<?xml version="1.0" encoding="UTF-8" standalone="no"?>
<!-- Created with Inkscape (http://www.inkscape.org/) -->

<svg
   version="1.1"
   id="svg824"
   width="696"
   height="1388"
   viewBox="0 0 696 1388"
   sodipodi:docname="nhh_logo_1f_positiv_helblaa.svg"
   inkscape:version="1.1 (c4e8f9e, 2021-05-24)"
   xmlns:inkscape="http://www.inkscape.org/namespaces/inkscape"
   xmlns:sodipodi="http://sodipodi.sourceforge.net/DTD/sodipodi-0.dtd"
   xmlns="http://www.w3.org/2000/svg"
   xmlns:svg="http://www.w3.org/2000/svg">
  <defs
     id="defs828" />
  <sodipodi:namedview
     id="namedview826"
     pagecolor="#505050"
     bordercolor="#ffffff"
     borderopacity="1"
     inkscape:pageshadow="0"
     inkscape:pageopacity="0"
     inkscape:pagecheckerboard="1"
     showgrid="false"
     inkscape:zoom="0.19791858"
     inkscape:cx="1543.564"
     inkscape:cy="-401.68033"
     inkscape:window-width="1920"
     inkscape:window-height="1147"
     inkscape:window-x="0"
     inkscape:window-y="25"
     inkscape:window-maximized="1"
     inkscape:current-layer="g830" />
  <g
     inkscape:groupmode="layer"
     inkscape:label="NHH Logo"
     id="g830">
    <path
       style="fill:#000000;fill-opacity:1"
       d="M -0.89317982,1219 V 1050 H 168.60682 h 169.5 v 169 169 h -169.5 H -0.89317982 Z M 178.90243,1331.4949 c 2.19993,-2.4993 4.81076,-6.2206 5.80186,-8.2695 l 1.80198,-3.7254 0.55028,-8 0.55027,-8 29.5,-0.5332 29.5,-0.5332 4.27925,-1.6827 c 5.05641,-1.9884 13.89396,-7.7054 16.92992,-10.9518 1.18248,-1.2645 3.72034,-4.9123 5.63968,-8.1062 l 3.48972,-5.8072 1.1772,-6.9792 1.17721,-6.9793 -0.3737,-17.7136 -0.3737,-17.7136 -2.17499,-4.1165 c -2.664,-5.042 -6.80821,-10.0657 -9.48546,-11.4985 l -1.99914,-1.0699 -3.47811,3.3424 c -1.91296,1.8384 -4.6773,5.3675 -6.14299,7.8425 l -2.66489,4.5 -0.5,21.1878 -0.5,21.1878 -3,3.1853 -3,3.1854 -3.21788,1.3769 -3.21788,1.3768 h -26.03212 -26.03212 v -54.5 -54.5 h 19.17126 19.17126 l 1.82874,-1.655 1.82874,-1.655 v -12.7225 -12.7226 l -1.32571,-1.1003 -1.32571,-1.1002 -19.42429,-0.2722 -19.42429,-0.2722 -0.5,-15 -0.5,-15 -1.5,-2.3068 c -0.825,-1.2687 -2.87078,-3.1612 -4.54618,-4.2056 l -3.04617,-1.8988 -3.95383,-0.601 -3.95382,-0.601 -4.44146,2.3066 -4.44145,2.3066 -2.05855,2.8194 -2.05854,2.8194 -0.5,14.6806 -0.5,14.6806 -20,0.2616 -20,0.2615 -1.25,1.6796 -1.25,1.6796 V 1152.1911 1164 l 2,2 2,2 h 19.5 19.5 v 54.5 54.5 h -25.18428 -25.18427 l -4.30875,-2.0858 -4.308737,-2.0859 -1.90025,-2.6686 -1.90025,-2.6687 -0.35673,-20.4955 -0.35673,-20.4955 -2.64995,-4.5 c -2.785363,-4.7299 -9.336413,-12 -10.813203,-12 -1.38355,0 -8.65653,8.6956 -10.68459,12.7746 l -1.85226,3.7254 v 22.5 22.5 l 3.13821,6.6234 3.13821,6.6234 3.66457,4.0562 c 4.22071,4.6718 11.18333,9.3723 17.601703,11.883 l 4.457309,1.7436 28.499998,0.5352 28.5,0.5352 0.60774,8.1694 0.60775,8.1694 2.79098,4.7624 2.79098,4.7625 4.4338,4.3092 4.43381,4.3091 1.81534,-0.9715 c 0.99844,-0.5344 3.61528,-3.0164 5.81521,-5.5156 z M 356.10682,1219 v -169 h 169.5 169.5 v 169 169 h -169.5 -169.5 z m 115.23586,78.7367 -10.22841,-10.2634 19.24627,-19.056 19.24628,-19.056 8,0.8729 8,0.873 9.5,-0.507 9.5,-0.5069 18.7464,18.6899 18.7464,18.6899 -10.22853,10.2634 L 551.64255,1308 h 27.73214 27.73213 v -27.7321 -27.7322 l -10.26548,10.2306 -10.26548,10.2305 -13.27549,-13.3029 -13.27549,-13.3028 5.79097,-1.7899 c 3.18503,-0.9845 9.98121,-3.7571 15.10261,-6.1614 l 9.31164,-4.3713 6.48627,-4.5343 c 3.56745,-2.4938 6.74339,-4.5342 7.05765,-4.5342 0.31426,0 7.29691,6.1358 15.51701,13.6351 l 14.94563,13.6351 0.87904,-0.8851 c 0.48348,-0.4868 1.3761,-4.0052 1.98361,-7.8187 l 1.10456,-6.9337 -1.06903,-6.89 -1.06903,-6.8901 -2.5898,-5.1763 c -1.4244,-2.847 -3.40883,-6.0763 -4.40986,-7.1763 l -1.82004,-2 3.46643,-7.1728 3.46643,-7.1728 1.44656,-6.8272 c 1.74526,-8.237 1.8325,-12.5911 0.38727,-19.33 l -1.09401,-5.1012 -0.83555,0.302 c -0.45955,0.1661 -7.15204,6.0395 -14.8722,13.052 -7.72016,7.0125 -14.3977,12.75 -14.83897,12.75 -1.18328,0 -28.12159,-13.9585 -28.67905,-14.8605 l -0.47586,-0.77 18.44483,-18.4246 c 10.14466,-10.1335 18.44483,-18.8671 18.44483,-19.4079 0,-1.3104 -12.15986,-13.537 -13.46313,-13.537 -0.5615,0 -11.19419,10.1661 -23.62821,22.5913 l -22.60731,22.5913 -7.40067,-1.0609 c -4.07038,-0.5834 -11.00068,-1.3379 -15.40068,-1.6767 l -8,-0.6158 -13.94216,1.0729 c -7.66819,0.5901 -16.59779,1.5953 -19.84357,2.2339 l -5.90141,1.161 -23.16425,-23.1485 C 446.0151,1132.4168 435.15681,1122 434.62591,1122 c -1.3085,0 -13.51909,12.1759 -13.51909,13.4807 0,0.5712 8.75385,9.7837 19.453,20.4723 l 19.453,19.4339 -7.12828,3.8679 c -10.65317,5.7805 -21.25456,13.4013 -29.63357,21.302 l -7.484,7.0568 8.41992,7.0729 c 16.46738,13.8329 31.2156,23.0828 44.41993,27.8596 2.75,0.9948 5.20325,1.9697 5.45167,2.1663 0.24842,0.1967 -5.81973,6.641 -13.48477,14.3208 l -13.93644,13.9631 -10.26523,-10.2303 -10.26523,-10.2303 V 1280.2679 1308 h 27.73213 27.73214 z M -0.89317982,861.50001 V 691.99423 l 169.24999982,0.25289 169.25,0.25289 v 169 V 1030.5 l -169.25,0.2529 -169.24999982,0.2529 z m 111.68489982,98.45317 2.8151,-1.0469 31.006,-30.9533 31.00601,-30.9533 30.49399,30.566 30.494,30.5659 2.70034,1.4342 2.70034,1.4342 h 3.64853 3.64853 l 3.42082,-1.6233 3.42083,-1.6232 1.98847,-2.7926 c 1.09366,-1.5359 2.26287,-4.1645 2.59823,-5.8413 l 0.60976,-3.0488 -0.69097,-3.7854 -0.69098,-3.7854 -31.42045,-31.514 -31.42045,-31.51397 24.75985,-24.74499 24.75985,-24.74499 21.39281,20.5165 c 11.76604,11.28408 21.52316,20.38615 21.68248,20.22682 0.15933,-0.15933 0.0163,-10.76929 -0.31791,-23.57769 l -0.6076,-23.288 -35.04216,-34.42983 -35.04216,-34.42982 h -1.44405 -1.44405 l -10.35503,10.1899 -10.35503,10.18989 v 2.51794 2.51793 l 14.75,14.21147 14.75,14.21147 -24.49242,24.58078 -24.49242,24.58077 -24.25536,-24.2402 -24.25535,-24.24019 14.49778,-14.52199 14.49777,-14.52198 v -2.548 -2.548 l -10.35503,-10.18989 -10.35503,-10.1899 h -1.8623 -1.8623 l -35.282667,35.23109 -35.282673,35.23109 0.0297,25.51891 0.0297,25.51891 22.01491,-22.25 c 12.108203,-12.2375 22.33586,-22.25 22.72814,-22.25 0.39228,0 11.39688,10.69061 24.45467,23.7569 l 23.74143,23.7569 -30.56505,30.49307 -30.565057,30.4931 -1.43419,2.7004 -1.43419,2.7003 v 4.4018 4.4018 l 2.26993,3.3978 2.26994,3.3979 3.48006,1.7485 3.480067,1.7484 h 3.1849 c 1.7517,9e-4 4.4517,-0.4695 6,-1.0453 z m 245.777,69.79682 c -0.26143,-0.6875 -0.3598,-76.85002 -0.21861,-169.24999 l 0.25671,-168 169.25,-0.25289 169.25,-0.25289 V 861.49712 1031 H 526.07544 357.04405 Z m 116.99655,-62.28122 5.87864,-1.5312 6.0813,-3.2188 6.0813,-3.2188 6.00417,-6 6.00417,-6 3.62382,-7 3.62383,-7 1.07579,-5 c 0.59169,-2.75 1.35432,-6.8717 1.69474,-9.1593 l 0.61894,-4.1593 -1.69675,-3.3407 c -0.93321,-1.8374 -12.01921,-21.4532 -24.63555,-43.59067 l -22.93879,-40.25 -5.68703,0.0257 -5.68703,0.0256 -23.99291,42.22435 -23.99291,42.22432 -0.33741,4 -0.33742,4 1.60002,6.897 1.60002,6.897 3.2036,6.103 3.20361,6.103 6.53282,6.6096 6.53283,6.6096 5.49388,2.8064 c 3.02163,1.5435 7.96887,3.6075 10.99387,4.5866 l 5.5,1.7803 9.0399,0.054 9.0399,0.054 5.87865,-1.5312 z m -50.57458,-60.2188 c 4.7311,-8.6764 35.38399,-61.91783 36.00681,-62.54065 l 0.80911,-0.80911 18.1501,31.97208 c 9.98256,17.58468 18.15011,32.23208 18.15011,32.54988 v 0.5778 h -37.03518 -37.03519 z m 182.72862,60.3649 5.11249,-1.3613 7.1399,-3.7519 7.13991,-3.7519 6.00645,-6.4209 6.00646,-6.421 3.00206,-5.947 c 1.65113,-3.2709 3.67215,-8.5197 4.49115,-11.6641 l 1.48909,-5.717 v -4.7576 -4.7577 l -24.25,-42.52371 -24.25,-42.52373 -5.62121,-0.009 -5.6212,-0.009 -24.1288,42.27435 -24.12879,42.27529 v 6.1203 6.1204 l 2.02658,6.5613 2.02658,6.5612 5.00488,7.483 5.00489,7.4829 6.19275,4.6552 c 7.56401,5.6859 12.13924,8.0758 18.99499,9.9219 l 5.24933,1.4135 9,0.054 9,0.054 5.11249,-1.3613 z m -50.44582,-59.5361 c 0.86028,-2.3775 36.29102,-64.07442 36.77816,-64.04325 0.46008,0.0294 13.53849,22.81183 33.38154,58.15015 l 3.82637,6.8143 h -37.1597 -37.15971 z M 530.6113,853.25001 c 2.49355,-3.1625 5.65013,-7.97585 7.01462,-10.69634 l 2.4809,-4.94635 v -11.26966 -11.26965 l 38.58136,-0.284 38.58136,-0.284 1.41864,-1.94113 1.41864,-1.94113 -0.0153,-11.05887 -0.0153,-11.05887 -0.94749,-1.5 -0.9475,-1.5 -38.78719,-0.5 -38.78719,-0.5 -0.5,-15.5 -0.5,-15.5 -2.26264,-3.17212 -2.26264,-3.17212 -4.44422,-1.69726 -4.44422,-1.69727 -3.4417,0.64567 -3.44169,0.64566 -2.60776,2.05127 c -1.43428,1.1282 -3.16743,3.02888 -3.85145,4.22372 l -1.24368,2.17245 -0.5,15.5 -0.5,15.5 -38.5,0.25425 -38.5,0.25425 -1.25,1.68688 -1.25,1.68688 v 11.11774 11.11774 l 1.41864,1.94113 1.41864,1.94113 38.33136,0.28332 38.33136,0.28332 v 11.25846 11.25846 l 2.66811,5.14266 c 3.07879,5.93424 10.66322,16.27378 11.93741,16.27378 0.47588,0 2.90541,-2.5875 5.39896,-5.75 z M 120.19283,239.58471 50.08923,124.16941 38.39258,103.12348 C 31.95942,91.548221 26.53997,82.233521 26.34935,82.424141 c -0.19063,0.19062 0.15399,14.685674 0.7658,32.211229 l 1.1124,31.86464 -0.31037,102 -0.31036,102 -14.25,0.27746 -14.24999982,0.27745 V 175.52747 6.7271557e-7 H 0.46489031 1.8229703 L 72.37747,113.75001 l 70.55451,113.75 11.59746,20.98182 11.59745,20.98182 -0.76003,-20.98182 -0.76004,-20.98182 v -111.5 V 4.5000006 h 14 14 l 0.25279,175.2500094 0.2528,175.25 h -1.40799 -1.40798 z m 131.91399,-62.0847 V 3.9465306 l 14.75,0.27674 14.75,0.27673 0.2551,94.2500044 0.2551,94.250005 h 65.4898 65.4898 l 0.2551,-94.250005 0.2551,-94.2500044 14.75,-0.27673 14.75,-0.27674 V 177.50001 351.05348 l -14.75,-0.27674 -14.75,-0.27673 -0.25724,-65.25 -0.25724,-65.25 H 347.60682 282.1213 l -0.25724,65.25 -0.25724,65.25 -14.75,0.27673 -14.75,0.27674 z m 250.47252,172.27758 c -0.26723,-0.70267 -0.37037,-78.67758 -0.2292,-173.27758 L 502.60682,4.5000006 h 14.5 14.5 l 0.2551,94.2500044 0.2551,94.250005 h 65.9949 65.9949 V 98.473275 3.9465306 l 14.75,0.27674 14.75,0.27673 v 173.0000094 173 l -14.75,0.27673 -14.75,0.27674 V 285.52674 220.00001 H 598.11406 532.1213 l -0.25724,65.25 -0.25724,65.25 -14.2708,0.27758 -14.2708,0.27759 z"
       id="path3003" />
  </g>
</svg>
